<svg class="prefix__image-tagger-logo" xmlns="http://www.w3.org/2000/svg" viewBox="0 0 48 48"><g fill="#fff" fill-rule="evenodd" fill-opacity=".54"><path d="M24 2C12.954 2 4 10.954 4 22s8.954 20 20 20 20-8.954 20-20S35.046 2 24 2zm0 36c-9.941 0-18-8.059-18-18S14.059 2 24 2s18 8.059 18 18-8.059 18-18 18z"/><path d="M33.293 33.293l-5.657-5.657 1.414-1.414 5.657 5.657-1.414 1.414zM22 26c-5.523 0-10-4.477-10-10S16.477 6 22 6s10 4.477 10 10-4.477 10-10 10zm0-18a8 8 0 100 16 8 8 0 000-16z"/></g></svg>